<?xml version="1.0" encoding="utf-8"?>
<!-- Generator: Adobe Illustrator 21.0.0, SVG Export Plug-In . SVG Version: 6.00 Build 0)  -->
<svg version="1.1" id="Layer_1" xmlns="http://www.w3.org/2000/svg" xmlns:xlink="http://www.w3.org/1999/xlink" x="0px" y="0px"
	 viewBox="0 0 492.1 256.2" style="enable-background:new 0 0 492.1 256.2;" xml:space="preserve">
<style type="text/css">
	.st0{fill:#FAFAFA;}
</style>
<g id="BG">
</g>
<g id="PolarBear">
	<path class="st0" d="M466,64.1c-7.5-10.3-18.2-18.1-30.7-22c-0.4-0.1-0.9-0.3-1.4-0.4c-5.3-1.5-10.9-2.3-16.6-2.3
		c-0.5,0-4-7.4-7.4-7.4s-8.5,2.8-8.5,6.2c0,0-21.8-4.6-35.1-6c-10.2-1.1-20-1.6-29.3-1.8c-14.8-8.4-31.9-13.1-50.2-13.1
		c-17.4,0-49.4,11.7-49.8,11.4c-12.8-5.6-26.6-9.3-41-10.7c-17-9.7-36.2-15.8-56.6-17.5C135.7,0.2,131.9,0,128,0
		C51.9,0,0,32,0,105.9c0,46.7,54.3,101.6,60.2,150.2h98.3c-5.9-6.2-28.1-17.2-28.1-17.2l-4.9-39.4c29.5,0,98.5-17.2,98.5-17.2
		c-8.7,10.9-5.9,62-5.1,73.9h43.2H281h30.2c-5.9-6.2-28.1-17.2-28.1-17.2v-0.1c1-6.6,16.8-74.3,33.6-77.6
		c14.8-2.5,66.3-31.7,72.1-36.5c11.5-9.6,25.1-16.7,40-20.5c8.1-2.1,16.6-3.2,25.4-3.2c8,0,22.1-5.6,22-7.2l0,0
		c0-1.2-5.3-0.1-5.4-1.3c3.1-1.1,12.3-3.6,14.9-5.6l0,0c2-2.7,6.3-12.1,6.3-12.1C493.1,71.2,476,65,466,64.1z M451.8,66.4
		c-2,0-3.7-1.7-3.7-3.7s1.7-3.7,3.7-3.7s3.7,1.7,3.7,3.7C455.4,64.8,453.8,66.4,451.8,66.4z"/>
</g>
<g id="Ice">
</g>
</svg>
