<?xml version="1.0" encoding="utf-8"?>
<!-- Generator: Adobe Illustrator 21.0.0, SVG Export Plug-In . SVG Version: 6.00 Build 0)  -->
<svg version="1.1" id="Layer_1" xmlns="http://www.w3.org/2000/svg" xmlns:xlink="http://www.w3.org/1999/xlink" x="0px" y="0px"
	 viewBox="0 0 488 176.8" style="enable-background:new 0 0 488 176.8;" xml:space="preserve">
<style type="text/css">
	.st0{fill:#FAFAFA;}
</style>
<g id="BG">
</g>
<g id="PolarBear">
	<polygon class="st0" points="435,0 358,0 145.6,0 130,0 44.3,0 24,0 0,0 65.6,176.8 87.6,116.6 95.4,137.7 102.2,119.1 
		121.5,170.9 139.2,122.4 145.6,139.7 166.7,81.7 191.9,149.4 210.9,97.3 226.6,139.7 243.8,92.5 261.4,139.7 268.2,121 
		287.4,172.9 305.1,124.3 311.5,141.6 332.7,83.6 357.9,151.4 376.8,99.3 392.6,141.6 401.5,117.2 423.6,176.8 488,0 	"/>
</g>
<g id="Ice">
</g>
</svg>
